<svg xmlns="http://www.w3.org/2000/svg" viewBox="0 0 512 512" width="512" height="512">

  <!-- Background -->
  <rect width="512" height="512" rx="96" ry="96" fill="#1e1040"/>

  <!-- Left bracket < drawn as filled polygons (two arms) -->
  <!-- Upper arm: from tip (90,256) going upper-right -->
  <polygon points="90,256 154,180 186,210 138,256" fill="#a78bfa"/>
  <!-- Lower arm -->
  <polygon points="90,256 154,332 186,302 138,256" fill="#a78bfa"/>

  <!-- Right bracket > drawn as filled polygons -->
  <!-- Upper arm -->
  <polygon points="422,256 358,180 326,210 374,256" fill="#a78bfa"/>
  <!-- Lower arm -->
  <polygon points="422,256 358,332 326,302 374,256" fill="#a78bfa"/>

  <!-- Slash / as a filled rotated rectangle -->
  <!-- From bottom-left (204,350) to top-right (308,162), width 28 -->
  <polygon points="190,348 218,362 322,162 294,148" fill="#f59e0b"/>

  <!-- Top skill node (gold) -->
  <circle cx="256" cy="104" r="26" fill="#f59e0b"/>

  <!-- Bottom-left skill node (violet) -->
  <circle cx="144" cy="408" r="20" fill="#a78bfa"/>

  <!-- Bottom-right skill node (violet) -->
  <circle cx="368" cy="408" r="20" fill="#a78bfa"/>

  <!-- Sparkle top-right: 4-point star shape -->
  <polygon points="392,88  400,110  392,132  384,110" fill="#fcd34d"/>
  <polygon points="370,110 392,102  414,110  392,118" fill="#fcd34d"/>
  <!-- Diagonal arms (smaller) -->
  <polygon points="376,94  386,104  392,110  382,100" fill="#fcd34d"/>
  <polygon points="408,94  398,104  392,110  402,100" fill="#fcd34d"/>
  <polygon points="376,126 386,116  392,110  382,120" fill="#fcd34d"/>
  <polygon points="408,126 398,116  392,110  402,120" fill="#fcd34d"/>

</svg>
